{
  "accessors": [
    {
      "bufferView": 2,
      "componentType": 5126,
      "count": 2822,
      "max": [
        0.8730704188346863,
        0.580897867679596,
        0.13991646468639374
      ],
      "min": [
        -0.24779504537582397,
        -0.5808979272842407,
        -0.2527785301208496
      ],
      "type": "VEC3"
    },
    {
      "bufferView": 2,
      "byteOffset": 33864,
      "componentType": 5126,
      "count": 2822,
      "max": [
        1.0,
        0.9999820590019226,
        0.9996641278266907
      ],
      "min": [
        -1.0,
        -0.9999820590019226,
        -0.999725878238678
      ],
      "type": "VEC3"
    },
    {
      "bufferView": 1,
      "componentType": 5126,
      "count": 2822,
      "max": [
        0.8750002384185791,
        1.000000238418579
      ],
      "min": [
        0.3750000596046448,
        0.0
      ],
      "type": "VEC2"
    },
    {
      "bufferView": 0,
      "componentType": 5125,
      "count": 9984,
      "type": "SCALAR"
    },
    {
      "bufferView": 2,
      "byteOffset": 67728,
      "componentType": 5126,
      "count": 4354,
      "max": [
        2.4695048332214355,
        2.475175142288208,
        1.3387055397033691
      ],
      "min": [
        -2.4696156978607178,
        -2.295151948928833,
        -1.3387055397033691
      ],
      "type": "VEC3"
    },
    {
      "bufferView": 2,
      "byteOffset": 119976,
      "componentType": 5126,
      "count": 4354,
      "max": [
        1.0,
        0.9990596771240234,
        0.9991447925567627
      ],
      "min": [
        -0.9997315406799316,
        -1.0,
        -0.9991447925567627
      ],
      "type": "VEC3"
    },
    {
      "bufferView": 1,
      "byteOffset": 22576,
      "componentType": 5126,
      "count": 4354,
      "max": [
        37264.12890625,
        37264.62890625
      ],
      "min": [
        -13383.181640625,
        -13382.689453125
      ],
      "type": "VEC2"
    },
    {
      "bufferView": 0,
      "byteOffset": 39936,
      "componentType": 5125,
      "count": 14844,
      "type": "SCALAR"
    },
    {
      "bufferView": 2,
      "byteOffset": 172224,
      "componentType": 5126,
      "count": 4354,
      "max": [
        2.4695048332214355,
        2.475175142288208,
        1.3387055397033691
      ],
      "min": [
        -2.4696156978607178,
        -2.295151948928833,
        -1.3387055397033691
      ],
      "type": "VEC3"
    },
    {
      "bufferView": 2,
      "byteOffset": 224472,
      "componentType": 5126,
      "count": 4354,
      "max": [
        1.0,
        0.9990596771240234,
        0.9991447925567627
      ],
      "min": [
        -0.9997315406799316,
        -1.0,
        -0.9991447925567627
      ],
      "type": "VEC3"
    },
    {
      "bufferView": 1,
      "byteOffset": 57408,
      "componentType": 5126,
      "count": 4354,
      "max": [
        37264.12890625,
        37264.62890625
      ],
      "min": [
        -13383.181640625,
        -13382.689453125
      ],
      "type": "VEC2"
    },
    {
      "bufferView": 0,
      "byteOffset": 99312,
      "componentType": 5125,
      "count": 14844,
      "type": "SCALAR"
    },
    {
      "bufferView": 2,
      "byteOffset": 276720,
      "componentType": 5126,
      "count": 4354,
      "max": [
        2.4695048332214355,
        2.475175142288208,
        1.3387055397033691
      ],
      "min": [
        -2.4696156978607178,
        -2.295151948928833,
        -1.3387055397033691
      ],
      "type": "VEC3"
    },
    {
      "bufferView": 2,
      "byteOffset": 328968,
      "componentType": 5126,
      "count": 4354,
      "max": [
        1.0,
        0.9990596771240234,
        0.9991447925567627
      ],
      "min": [
        -0.9997315406799316,
        -1.0,
        -0.9991447925567627
      ],
      "type": "VEC3"
    },
    {
      "bufferView": 1,
      "byteOffset": 92240,
      "componentType": 5126,
      "count": 4354,
      "max": [
        37264.12890625,
        37264.62890625
      ],
      "min": [
        -13383.181640625,
        -13382.689453125
      ],
      "type": "VEC2"
    },
    {
      "bufferView": 0,
      "byteOffset": 158688,
      "componentType": 5125,
      "count": 14844,
      "type": "SCALAR"
    },
    {
      "bufferView": 2,
      "byteOffset": 381216,
      "componentType": 5126,
      "count": 4,
      "max": [
        1.5538644790649414,
        0.0,
        1.0
      ],
      "min": [
        -1.5538644790649414,
        0.0,
        -1.0
      ],
      "type": "VEC3"
    },
    {
      "bufferView": 2,
      "byteOffset": 381264,
      "componentType": 5126,
      "count": 4,
      "max": [
        0.0,
        1.0,
        -0.0
      ],
      "min": [
        0.0,
        1.0,
        -0.0
      ],
      "type": "VEC3"
    },
    {
      "bufferView": 1,
      "byteOffset": 127072,
      "componentType": 5126,
      "count": 4,
      "max": [
        0.7011524438858032,
        0.411584734916687
      ],
      "min": [
        0.016792571172118187,
        0.12006087601184845
      ],
      "type": "VEC2"
    },
    {
      "bufferView": 0,
      "byteOffset": 218064,
      "componentType": 5125,
      "count": 6,
      "type": "SCALAR"
    },
    {
      "bufferView": 2,
      "byteOffset": 381312,
      "componentType": 5126,
      "count": 4,
      "max": [
        2.130765914916992,
        3.1636206770893247e-16,
        0.9999999403953552
      ],
      "min": [
        -2.130765914916992,
        -3.1636201476937327e-16,
        -1.0
      ],
      "type": "VEC3"
    },
    {
      "bufferView": 2,
      "byteOffset": 381360,
      "componentType": 5126,
      "count": 4,
      "max": [
        1.4847338776933171e-16,
        1.0,
        -0.0
      ],
      "min": [
        1.4847338776933171e-16,
        1.0,
        -0.0
      ],
      "type": "VEC3"
    },
    {
      "bufferView": 1,
      "byteOffset": 127104,
      "componentType": 5126,
      "count": 4,
      "max": [
        0.9954212307929993,
        0.6235091686248779
      ],
      "min": [
        0.5626571774482727,
        0.3643820881843567
      ],
      "type": "VEC2"
    },
    {
      "bufferView": 0,
      "byteOffset": 218088,
      "componentType": 5125,
      "count": 6,
      "type": "SCALAR"
    },
    {
      "bufferView": 2,
      "byteOffset": 381408,
      "componentType": 5126,
      "count": 4,
      "max": [
        1.0,
        0.0,
        1.0
      ],
      "min": [
        -1.0,
        0.0,
        -1.0
      ],
      "type": "VEC3"
    },
    {
      "bufferView": 2,
      "byteOffset": 381456,
      "componentType": 5126,
      "count": 4,
      "max": [
        0.0,
        1.0,
        -0.0
      ],
      "min": [
        0.0,
        1.0,
        -0.0
      ],
      "type": "VEC3"
    },
    {
      "bufferView": 1,
      "byteOffset": 127136,
      "componentType": 5126,
      "count": 4,
      "max": [
        0.9819427132606506,
        0.3637705445289612
      ],
      "min": [
        0.7015644907951355,
        0.09030373394489288
      ],
      "type": "VEC2"
    },
    {
      "bufferView": 0,
      "byteOffset": 218112,
      "componentType": 5125,
      "count": 6,
      "type": "SCALAR"
    },
    {
      "bufferView": 2,
      "byteOffset": 381504,
      "componentType": 5126,
      "count": 4,
      "max": [
        1.7946512699127197,
        0.0,
        1.0
      ],
      "min": [
        -1.0,
        -2.1541227077358113e-16,
        -1.0
      ],
      "type": "VEC3"
    },
    {
      "bufferView": 2,
      "byteOffset": 381552,
      "componentType": 5126,
      "count": 4,
      "max": [
        7.708019672348834e-17,
        1.0,
        -0.0
      ],
      "min": [
        7.708019672348834e-17,
        1.0,
        -0.0
      ],
      "type": "VEC3"
    },
    {
      "bufferView": 1,
      "byteOffset": 127168,
      "componentType": 5126,
      "count": 4,
      "max": [
        0.3050128221511841,
        1.0046724081039429
      ],
      "min": [
        0.008034080266952515,
        0.763530433177948
      ],
      "type": "VEC2"
    },
    {
      "bufferView": 0,
      "byteOffset": 218136,
      "componentType": 5125,
      "count": 6,
      "type": "SCALAR"
    }
  ],
  "asset": {
    "extras": {
      "author": "Khal-lion (https://sketchfab.com/Khal-lion)",
      "license": "SKETCHFAB Standard (https://sketchfab.com/licenses)",
      "source": "https://sketchfab.com/3d-models/cartoon-night-sky-6f8eacef67944defa5239cb6aacd8ab3",
      "title": "Cartoon Night sky"
    },
    "generator": "Sketchfab-15.70.0",
    "version": "2.0"
  },
  "bufferViews": [
    {
      "buffer": 0,
      "byteLength": 218160,
      "name": "floatBufferViews",
      "target": 34963
    },
    {
      "buffer": 0,
      "byteLength": 127200,
      "byteOffset": 218160,
      "byteStride": 8,
      "name": "floatBufferViews",
      "target": 34962
    },
    {
      "buffer": 0,
      "byteLength": 381600,
      "byteOffset": 345360,
      "byteStride": 12,
      "name": "floatBufferViews",
      "target": 34962
    }
  ],
  "buffers": [
    {
      "byteLength": 726960,
      "uri": "scene.bin"
    }
  ],
  "extensionsUsed": [
    "KHR_materials_specular"
  ],
  "images": [
    {
      "uri": "textures/nuven_baseColor.png"
    }
  ],
  "materials": [
    {
      "doubleSided": true,
      "emissiveFactor": [
        0.5597601313670111,
        0.3841496121372491,
        0.12267791011670272
      ],
      "name": "moon",
      "pbrMetallicRoughness": {
        "baseColorFactor": [
          0.5167809169099887,
          0.5469729369111547,
          0.04092218098504788,
          1.0
        ],
        "metallicFactor": 0.0
      }
    },
    {
      "alphaMode": "BLEND",
      "doubleSided": true,
      "emissiveFactor": [
        0.110689,
        0.110689,
        0.110689
      ],
      "extensions": {
        "KHR_materials_specular": {
          "specularColorFactor": [
            1.0,
            1.0,
            1.0
          ],
          "specularFactor": 0.7414193694629668
        }
      },
      "name": "nuven",
      "pbrMetallicRoughness": {
        "baseColorFactor": [
          1.0,
          1.0,
          1.0,
          0.7099365936895924
        ],
        "baseColorTexture": {
          "index": 0
        },
        "metallicFactor": 0.0,
        "roughnessFactor": 0.5
      }
    }
  ],
  "meshes": [
    {
      "name": "Object_0",
      "primitives": [
        {
          "attributes": {
            "NORMAL": 1,
            "POSITION": 0,
            "TEXCOORD_0": 2
          },
          "indices": 3,
          "material": 0,
          "mode": 4
        }
      ]
    },
    {
      "name": "Object_1",
      "primitives": [
        {
          "attributes": {
            "NORMAL": 5,
            "POSITION": 4,
            "TEXCOORD_0": 6
          },
          "indices": 7,
          "material": 0,
          "mode": 4
        }
      ]
    },
    {
      "name": "Object_2",
      "primitives": [
        {
          "attributes": {
            "NORMAL": 9,
            "POSITION": 8,
            "TEXCOORD_0": 10
          },
          "indices": 11,
          "material": 0,
          "mode": 4
        }
      ]
    },
    {
      "name": "Object_3",
      "primitives": [
        {
          "attributes": {
            "NORMAL": 13,
            "POSITION": 12,
            "TEXCOORD_0": 14
          },
          "indices": 15,
          "material": 0,
          "mode": 4
        }
      ]
    },
    {
      "name": "Object_4",
      "primitives": [
        {
          "attributes": {
            "NORMAL": 17,
            "POSITION": 16,
            "TEXCOORD_0": 18
          },
          "indices": 19,
          "material": 1,
          "mode": 4
        }
      ]
    },
    {
      "name": "Object_5",
      "primitives": [
        {
          "attributes": {
            "NORMAL": 21,
            "POSITION": 20,
            "TEXCOORD_0": 22
          },
          "indices": 23,
          "material": 1,
          "mode": 4
        }
      ]
    },
    {
      "name": "Object_6",
      "primitives": [
        {
          "attributes": {
            "NORMAL": 25,
            "POSITION": 24,
            "TEXCOORD_0": 26
          },
          "indices": 27,
          "material": 1,
          "mode": 4
        }
      ]
    },
    {
      "name": "Object_7",
      "primitives": [
        {
          "attributes": {
            "NORMAL": 29,
            "POSITION": 28,
            "TEXCOORD_0": 30
          },
          "indices": 31,
          "material": 1,
          "mode": 4
        }
      ]
    }
  ],
  "nodes": [
    {
      "children": [
        1
      ],
      "matrix": [
        1.0,
        0.0,
        0.0,
        0.0,
        0.0,
        2.220446049250313e-16,
        -1.0,
        0.0,
        0.0,
        1.0,
        2.220446049250313e-16,
        0.0,
        0.0,
        0.0,
        0.0,
        1.0
      ],
      "name": "Sketchfab_model"
    },
    {
      "children": [
        2
      ],
      "name": "root"
    },
    {
      "children": [
        3,
        5,
        7,
        9,
        11,
        13,
        15,
        17
      ],
      "matrix": [
        1.0,
        0.0,
        0.0,
        0.0,
        0.0,
        2.220446049250313e-16,
        1.0,
        0.0,
        0.0,
        -1.0,
        2.220446049250313e-16,
        0.0,
        0.0,
        0.0,
        0.0,
        1.0
      ],
      "name": "GLTF_SceneRootNode"
    },
    {
      "children": [
        4
      ],
      "matrix": [
        2.3481693367115435,
        1.2080241070523956,
        0.0,
        0.0,
        -1.380751488282721,
        2.6839185472179383,
        0.0,
        0.0,
        0.0,
        0.0,
        2.640685796737671,
        0.0,
        -1.589431643486023,
        -0.5971719026565552,
        0.30022305250167847,
        1.0
      ],
      "name": "Cube_2"
    },
    {
      "mesh": 0,
      "name": "Object_4"
    },
    {
      "children": [
        6
      ],
      "matrix": [
        0.16582319140434265,
        0.0,
        0.0,
        0.0,
        0.0,
        0.16582319140434265,
        0.0,
        0.0,
        0.0,
        0.0,
        0.10874802619218826,
        0.0,
        3.8019680976867676,
        0.23073334991931915,
        -0.3061474561691284,
        1.0
      ],
      "name": "Cube.001_3"
    },
    {
      "mesh": 1,
      "name": "Object_6"
    },
    {
      "children": [
        8
      ],
      "matrix": [
        0.2200281023979187,
        0.0,
        0.0,
        0.0,
        0.0,
        0.2200281023979187,
        0.0,
        0.0,
        0.0,
        0.0,
        0.14429599046707153,
        0.0,
        2.2225825786590576,
        1.0827147960662842,
        -1.0060935020446777,
        1.0
      ],
      "name": "Cube.002_4"
    },
    {
      "mesh": 2,
      "name": "Object_8"
    },
    {
      "children": [
        10
      ],
      "matrix": [
        0.1547422707080841,
        0.0,
        0.0,
        0.0,
        0.0,
        0.1547422707080841,
        0.0,
        0.0,
        0.0,
        0.0,
        0.10148108005523682,
        0.0,
        2.2872729301452637,
        -1.2158738374710083,
        0.663668155670166,
        1.0
      ],
      "name": "Cube.003_5"
    },
    {
      "mesh": 3,
      "name": "Object_10"
    },
    {
      "children": [
        12
      ],
      "matrix": [
        2.4131290912628174,
        0.0,
        0.0,
        0.0,
        0.0,
        1.21028682343088e-07,
        1.4357975721359204,
        0.0,
        0.0,
        -1.4357975721359204,
        1.21028682343088e-07,
        0.0,
        -1.9583461284637451,
        -1.9653828144073486,
        3.0220916271209717,
        1.0
      ],
      "name": "Plane_9"
    },
    {
      "mesh": 4,
      "name": "Object_12"
    },
    {
      "children": [
        14
      ],
      "matrix": [
        -1.8091086149215698,
        0.0,
        0.0,
        -0.0,
        0.0,
        1.21028682343088e-07,
        1.4357975721359204,
        0.0,
        0.0,
        -1.4357975721359204,
        1.21028682343088e-07,
        0.0,
        2.7793490886688232,
        -0.9481649398803711,
        -3.137786865234375,
        1.0
      ],
      "name": "Plane.001_10"
    },
    {
      "mesh": 5,
      "name": "Object_14"
    },
    {
      "children": [
        16
      ],
      "matrix": [
        1.7484694719314575,
        0.0,
        0.0,
        0.0,
        0.0,
        1.21028682343088e-07,
        1.4357975721359204,
        0.0,
        0.0,
        -1.4357975721359204,
        1.21028682343088e-07,
        0.0,
        3.440366744995117,
        -2.68628191947937,
        3.1005611419677734,
        1.0
      ],
      "name": "Plane.002_11"
    },
    {
      "mesh": 6,
      "name": "Object_16"
    },
    {
      "children": [
        18
      ],
      "matrix": [
        -1.7528584003448486,
        -0.0,
        0.0,
        -0.0,
        0.0,
        1.21028682343088e-07,
        1.4357975721359204,
        0.0,
        0.0,
        -1.4357975721359204,
        1.21028682343088e-07,
        0.0,
        -3.278611898422241,
        0.6432737112045288,
        -0.48069047927856445,
        1.0
      ],
      "name": "Plane.003_12"
    },
    {
      "mesh": 7,
      "name": "Object_18"
    }
  ],
  "samplers": [
    {
      "magFilter": 9729,
      "minFilter": 9987,
      "wrapS": 10497,
      "wrapT": 10497
    }
  ],
  "scene": 0,
  "scenes": [
    {
      "name": "Sketchfab_Scene",
      "nodes": [
        0
      ]
    }
  ],
  "textures": [
    {
      "sampler": 0,
      "source": 0
    }
  ]
}
